<?xml version="1.0" encoding="UTF-8" standalone="no"?>
<svg
   viewBox="0 0 448 512"
   version="1.1"
   id="svg440"
   sodipodi:docname="cross.svg"
   inkscape:version="1.2 (56b05e47e7, 2022-06-09, custom)"
   xmlns:inkscape="http://www.inkscape.org/namespaces/inkscape"
   xmlns:sodipodi="http://sodipodi.sourceforge.net/DTD/sodipodi-0.dtd"
   xmlns="http://www.w3.org/2000/svg"
   xmlns:svg="http://www.w3.org/2000/svg">
  <defs
     id="defs444" />
  <sodipodi:namedview
     id="namedview442"
     pagecolor="#ffffff"
     bordercolor="#000000"
     borderopacity="0.25"
     inkscape:showpageshadow="2"
     inkscape:pageopacity="0.0"
     inkscape:pagecheckerboard="0"
     inkscape:deskcolor="#d1d1d1"
     showgrid="false"
     inkscape:zoom="1.5507812"
     inkscape:cx="112.84635"
     inkscape:cy="256.32242"
     inkscape:window-width="1920"
     inkscape:window-height="960"
     inkscape:window-x="0"
     inkscape:window-y="27"
     inkscape:window-maximized="1"
     inkscape:current-layer="svg440" />
  <!--! Font Awesome Pro 6.1.1 by @fontawesome - https://fontawesome.com License - https://fontawesome.com/license (Commercial License) Copyright 2022 Fonticons, Inc. -->
  <path
     d="M384 32C419.3 32 448 60.65 448 96V416C448 451.3 419.3 480 384 480H64C28.65 480 0 451.3 0 416V96C0 60.65 28.65 32 64 32H384zM143 208.1L190.1 255.1L143 303C133.7 312.4 133.7 327.6 143 336.1C152.4 346.3 167.6 346.3 176.1 336.1L223.1 289.9L271 336.1C280.4 346.3 295.6 346.3 304.1 336.1C314.3 327.6 314.3 312.4 304.1 303L257.9 255.1L304.1 208.1C314.3 199.6 314.3 184.4 304.1 175C295.6 165.7 280.4 165.7 271 175L223.1 222.1L176.1 175C167.6 165.7 152.4 165.7 143 175C133.7 184.4 133.7 199.6 143 208.1V208.1z"
     id="path438"
     style="fill:#ee4444;fill-opacity:1" />
</svg>
